<svg version="1.1" viewBox="0.0 0.0 288.4514435695538 288.46456692913387" fill="none" stroke="none" stroke-linecap="square" stroke-miterlimit="10" xmlns:xlink="http://www.w3.org/1999/xlink" xmlns="http://www.w3.org/2000/svg"><clipPath id="p.0"><path d="m0 0l288.45145 0l0 288.46457l-288.45145 0l0 -288.46457z" clip-rule="nonzero"/></clipPath><g clip-path="url(#p.0)"><path fill="#000000" fill-opacity="0.0" d="m0 0l288.45145 0l0 288.46457l-288.45145 0z" fill-rule="evenodd"/><path fill="#c9daf8" d="m0 144.0l0 0c0 -79.52901 64.47099 -144.0 144.0 -144.0l0 0c38.191177 0 74.81813 15.171385 101.82338 42.176624c27.005234 27.005238 42.17662 63.6322 42.17662 101.82338l0 0c0 79.52901 -64.47099 144.0 -144.0 144.0l0 0c-79.52901 0 -144.0 -64.47099 -144.0 -144.0z" fill-rule="evenodd"/><path fill="#ffffff" d="m92.60156 172.79999l-20.984375 -52.734375l-0.1875 0q0.078125 1.4375 0.125 3.03125q0.0625 1.578125 0.09375 3.296875q0.046875 1.71875 0.046875 3.59375l0 42.8125l-3.828125 0l0 -57.109375l6.09375 0l20.234375 50.859375l0.234375 0l20.390625 -50.859375l5.9375 0l0 57.109375l-3.9375 0l0 -43.28125q0 -1.53125 0.03125 -3.125q0.046875 -1.609375 0.09375 -3.1875q0.0625 -1.578125 0.140625 -3.0625l-0.234375 0l-21.046875 52.65625l-3.203125 0zm68.59375 -54.296875q-5.46875 0 -9.765625 1.859375q-4.296875 1.84375 -7.265625 5.25q-2.96875 3.390625 -4.53125 8.109375q-1.5625 4.703125 -1.5625 10.359375q0 7.8125 2.453125 13.65625q2.46875 5.84375 7.40625 9.046875q4.9375 3.203125 12.328125 3.203125q4.296875 0 7.8125 -0.640625q3.515625 -0.65625 6.515625 -1.671875l0 3.515625q-2.84375 1.0625 -6.421875 1.71875q-3.578125 0.671875 -8.296875 0.671875q-8.5625 0 -14.359375 -3.671875q-5.796875 -3.671875 -8.734375 -10.3125q-2.921875 -6.640625 -2.921875 -15.515625q0 -6.359375 1.828125 -11.6875q1.84375 -5.34375 5.375 -9.265625q3.53125 -3.921875 8.609375 -6.09375q5.078125 -2.171875 11.5625 -2.171875q4.109375 0 7.828125 0.8125q3.734375 0.796875 7.015625 2.3125l-1.5625 3.515625q-3.15625 -1.5625 -6.484375 -2.28125q-3.3125 -0.71875 -6.828125 -0.71875zm49.648438 0q-5.46875 0 -9.765625 1.859375q-4.296875 1.84375 -7.265625 5.25q-2.96875 3.390625 -4.53125 8.109375q-1.5625 4.703125 -1.5625 10.359375q0 7.8125 2.453125 13.65625q2.46875 5.84375 7.40625 9.046875q4.9375 3.203125 12.328125 3.203125q4.296875 0 7.8125 -0.640625q3.515625 -0.65625 6.515625 -1.671875l0 3.515625q-2.84375 1.0625 -6.421875 1.71875q-3.578125 0.671875 -8.296875 0.671875q-8.5625 0 -14.359375 -3.671875q-5.796875 -3.671875 -8.734375 -10.3125q-2.921875 -6.640625 -2.921875 -15.515625q0 -6.359375 1.828125 -11.6875q1.84375 -5.34375 5.375 -9.265625q3.53125 -3.921875 8.609375 -6.09375q5.078125 -2.171875 11.5625 -2.171875q4.109375 0 7.828125 0.8125q3.734375 0.796875 7.015625 2.3125l-1.5625 3.515625q-3.15625 -1.5625 -6.484375 -2.28125q-3.3125 -0.71875 -6.828125 -0.71875z" fill-rule="nonzero"/></g></svg>