<svg version="1.1" viewBox="0.0 0.0 32.0 32.0" fill="none" stroke="none" stroke-linecap="square" stroke-miterlimit="10" xmlns:xlink="http://www.w3.org/1999/xlink" xmlns="http://www.w3.org/2000/svg"><clipPath id="p.0"><path d="m0 0l32.0 0l0 32.0l-32.0 0l0 -32.0z" clip-rule="nonzero"/></clipPath><g clip-path="url(#p.0)"><path fill="#000000" fill-opacity="0.0" d="m0 0l32.0 0l0 32.0l-32.0 0z" fill-rule="evenodd"/><path fill="#000000" fill-opacity="0.0" d="m1.3385918 9.339945l21.26649 0l0 21.720669l-21.26649 0z" fill-rule="evenodd"/><path fill="#000000" fill-opacity="0.0" d="m22.605083 9.339945l8.030233 -8.030232l0 21.720669l-8.030233 8.030231z" fill-rule="evenodd"/><path fill="#000000" fill-opacity="0.0" d="m1.3385918 9.339945l8.030232 -8.030232l21.266493 0l-8.030233 8.030232z" fill-rule="evenodd"/><path fill="#000000" fill-opacity="0.0" d="m1.3385918 9.339945l8.030232 -8.030232l21.266493 0l0 21.720669l-8.030233 8.030231l-21.26649 0zm0 0l21.26649 0l8.030233 -8.030232m-8.030233 8.030232l0 21.720669" fill-rule="evenodd"/><path fill="#000000" fill-opacity="0.2" d="m22.605083 9.339945l8.030233 -8.030232l0 21.720669l-8.030233 8.030231z" fill-rule="evenodd"/><path fill="#ffffff" fill-opacity="0.2" d="m1.3385918 9.339945l8.030232 -8.030232l21.266493 0l-8.030233 8.030232z" fill-rule="evenodd"/><path stroke="#1c4587" stroke-width="1.0" stroke-linejoin="round" stroke-linecap="butt" d="m1.3385918 9.339945l8.030232 -8.030232l21.266493 0l0 21.720669l-8.030233 8.030231l-21.26649 0zm0 0l21.26649 0l8.030233 -8.030232m-8.030233 8.030232l0 21.720669" fill-rule="evenodd"/><path fill="#000000" fill-opacity="0.0" d="m-2.784777 4.220133l40.8091 0l0 30.692125l-40.8091 0z" fill-rule="evenodd"/><path fill="#1c4587" d="m6.605848 20.414507l0.828125 -0.109375q0.140625 0.703125 0.46875 1.015625q0.34375048 0.296875 0.8281255 0.296875q0.578125 0 0.96875 -0.390625q0.40625 -0.40625 0.40625 -1.0q0 -0.5625 -0.375 -0.921875q-0.359375 -0.375 -0.921875 -0.375q-0.234375 0 -0.578125 0.09375l0.078125 -0.71875q0.09375 0 0.140625 0q0.515625 0 0.9375 -0.265625q0.421875 -0.28125 0.421875 -0.84375q0 -0.453125 -0.3125 -0.75q-0.296875 -0.296875 -0.78125 -0.296875q-0.484375 0 -0.7968755 0.3125q-0.3125 0.296875 -0.40625 0.890625l-0.828125 -0.140625q0.15625 -0.828125 0.6875 -1.28125q0.53125 -0.453125 1.3281255 -0.453125q0.546875 0 1.0 0.234375q0.46875 0.234375 0.703125 0.640625q0.25 0.40625 0.25 0.859375q0 0.4375 -0.234375 0.796875q-0.234375 0.34375 -0.6875 0.5625q0.59375 0.125 0.921875 0.5625q0.328125 0.421875 0.328125 1.078125q0 0.875 -0.640625 1.484375q-0.640625 0.609375 -1.609375 0.609375q-0.8750005 0 -1.4687505 -0.515625q-0.578125 -0.53125 -0.65625 -1.375zm5.5159917 1.765625l0 -6.671875l2.296875 0q0.78125 0 1.1875 0.09375q0.578125 0.125 0.984375 0.46875q0.53125 0.453125 0.78125 1.15625q0.265625 0.6875 0.265625 1.578125q0 0.765625 -0.171875 1.359375q-0.171875 0.578125 -0.453125 0.96875q-0.28125 0.375 -0.609375 0.59375q-0.328125 0.21875 -0.796875 0.34375q-0.46875 0.109375 -1.078125 0.109375l-2.40625 0zm0.890625 -0.78125l1.421875 0q0.65625 0 1.03125 -0.125q0.375 -0.125 0.609375 -0.34375q0.3125 -0.328125 0.484375 -0.84375q0.171875 -0.53125 0.171875 -1.296875q0 -1.046875 -0.34375 -1.609375q-0.34375 -0.5625 -0.828125 -0.75q-0.359375 -0.140625 -1.15625 -0.140625l-1.390625 0l0 5.109375z" fill-rule="nonzero"/></g></svg>